<svg xmlns="http://www.w3.org/2000/svg" viewBox="0 0 32 32" width="32" height="32" fill="none" shape-rendering="crispEdges">
  <g transform="translate(1 10)">
    <g fill="#d1c9b9">
      <rect x="18" width="8" height="2" />
      <rect y="2" width="2" height="10" />
      <rect x="4" y="2" width="2" height="10" />
      <rect x="8" y="2" width="2" height="10" />
      <rect x="18" y="2" width="2" height="8" />
      <rect x="2" y="10" width="2" height="2" />
      <rect x="6" y="10" width="2" height="2" />
    </g>
    <g fill="#12130f">
      <rect x="10" width="8" height="2" />
      <rect x="10" y="2" width="2" height="8" />
      <rect x="16" y="2" width="2" height="8" />
      <rect x="12" y="4" width="4" height="2" />
      <rect x="20" y="2" width="10" height="2" />
      <rect x="20" y="4" width="2" height="8" />
      <rect x="24" y="4" width="2" height="8" />
      <rect x="28" y="4" width="2" height="8" />
    </g>
  </g>
</svg>
